<!-- Generator: Adobe Illustrator 17.1.0, SVG Export Plug-In  -->
<svg version="1.1"
	 xmlns="http://www.w3.org/2000/svg" xmlns:xlink="http://www.w3.org/1999/xlink" xmlns:a="http://ns.adobe.com/AdobeSVGViewerExtensions/3.0/"
	 x="0px" y="0px" width="7.645px" height="7.65px" viewBox="0 0 7.645 7.65" enable-background="new 0 0 7.645 7.65"
	 xml:space="preserve">
<defs>
</defs>
<path fill="#7D7D7D" d="M3.824,0c0.53,0,1.026,0.1,1.489,0.299c0.463,0.2,0.868,0.473,1.216,0.819
	C6.877,1.464,7.15,1.869,7.348,2.334c0.198,0.464,0.297,0.961,0.297,1.491c0,0.529-0.099,1.026-0.297,1.491
	C7.15,5.78,6.877,6.187,6.529,6.532C6.182,6.879,5.776,7.151,5.313,7.351c-0.463,0.199-0.959,0.3-1.489,0.3
	c-0.529,0-1.026-0.101-1.49-0.3c-0.465-0.199-0.87-0.472-1.217-0.818C0.771,6.187,0.498,5.78,0.299,5.316C0.1,4.852,0,4.354,0,3.825
	c0-0.53,0.1-1.027,0.299-1.491c0.199-0.465,0.473-0.87,0.818-1.216c0.347-0.347,0.752-0.619,1.217-0.819C2.798,0.1,3.295,0,3.824,0z
	"/>
</svg>
